{"accessors" : [{"bufferView" : 0, "byteOffset" : 0, "componentType" : 5123, "count" : 1215, "type" : "SCALAR", "max" : [1192], "min" : [0]}, {"bufferView" : 1, "byteOffset" : 0, "componentType" : 5126, "count" : 1193, "type" : "VEC3", "max" : [0.02031286619603634, 0.06658180803060532, 0.010911219753324986], "min" : [-0.02031286619603634, -0.03526519611477852, -0.020941192284226418], "name" : "POSITION"}, {"bufferView" : 1, "byteOffset" : 12, "componentType" : 5126, "count" : 1193, "type" : "VEC3", "max" : [0.9712037444114685, 0.9850372672080994, 1.0000044107437134], "min" : [-0.9712037444114685, -0.9053504467010498, -1.0000044107437134], "name" : "NORMAL"}, {"bufferView" : 0, "byteOffset" : 2432, "componentType" : 5123, "count" : 126, "type" : "SCALAR", "max" : [124], "min" : [0]}, {"bufferView" : 2, "byteOffset" : 0, "componentType" : 5126, "count" : 125, "type" : "VEC3", "max" : [0.008072249591350555, -0.0006283902912400663, 0.0029002735391259193], "min" : [-0.008072249591350555, -0.035360969603061676, -0.009836481884121895], "name" : "POSITION"}, {"bufferView" : 2, "byteOffset" : 12, "componentType" : 5126, "count" : 125, "type" : "VEC3", "max" : [0.9234462976455688, -0.10407502204179764, 0.4587104022502899], "min" : [-0.9234462976455688, -0.9639533758163452, -0.9696686863899231], "name" : "NORMAL"}], "asset" : {"generator" : "Aspose.3D 23.9.0", "version" : "2.0"}, "buffers" : [{"uri" : "data:application/octet-stream;base64,", "byteLength" : 34880}], "bufferViews" : [{"buffer" : 0, "byteOffset" : 0, "byteLength" : 2684, "target" : 34963}, {"buffer" : 0, "byteOffset" : 2688, "byteLength" : 29160, "byteStride" : 24, "target" : 34962}, {"buffer" : 0, "byteOffset" : 31852, "byteLength" : 3024, "byteStride" : 24, "target" : 34962}], "materials" : [{"name" : "Top", "pbrMetallicRoughness" : {"baseColorFactor" : [0.149557322263718, 0.152570679783821, 0.307499945163727, 1], "metallicFactor" : 0.400000005960464, "roughnessFactor" : 0.415087103843689}, "emissiveFactor" : [0, 0, 0], "alphaMode" : "OPAQUE", "doubleSided" : false}, {"name" : "Bottom", "pbrMetallicRoughness" : {"baseColorFactor" : [0.465170055627823, 0.287776827812195, 0.0659497380256653, 1], "metallicFactor" : 0.400000005960464, "roughnessFactor" : 0.415087103843689}, "emissiveFactor" : [0, 0, 0], "alphaMode" : "OPAQUE", "doubleSided" : false}], "meshes" : [{"primitives" : [{"attributes" : {"POSITION" : 1, "NORMAL" : 2}, "indices" : 0, "material" : 0, "mode" : 4}, {"attributes" : {"POSITION" : 4, "NORMAL" : 5}, "indices" : 3, "material" : 1, "mode" : 4}]}], "nodes" : [{"matrix" : [100, 0, 0, 0, 0, -1.3435885581891682E-05, -99.99999657714513, 0, 0, 99.99999657714513, -1.3435885581891682E-05, 0, 0, 0, 0, 1], "mesh" : 0, "name" : "Whale"}, {"children" : [0], "name" : "RootNode"}], "scene" : 0, "scenes" : [{"nodes" : [1]}]}